<?xml version="1.0" encoding="UTF-8" standalone="no"?>
<!-- Created with Inkscape (http://www.inkscape.org/) -->

<svg
   width="81.304382mm"
   height="81.304268mm"
   viewBox="0 0 81.304382 81.304268"
   version="1.1"
   id="svg1"
   inkscape:version="1.3.2 (091e20e, 2023-11-25, custom)"
   sodipodi:docname="prueba_página.svg"
   xml:space="preserve"
   inkscape:export-filename="prueba_web.jpg"
   inkscape:export-xdpi="1149.8617"
   inkscape:export-ydpi="1149.8617"
   xmlns:inkscape="http://www.inkscape.org/namespaces/inkscape"
   xmlns:sodipodi="http://sodipodi.sourceforge.net/DTD/sodipodi-0.dtd"
   xmlns="http://www.w3.org/2000/svg"
   xmlns:svg="http://www.w3.org/2000/svg"><sodipodi:namedview
     id="namedview1"
     pagecolor="#505050"
     bordercolor="#ffffff"
     borderopacity="1"
     inkscape:showpageshadow="0"
     inkscape:pageopacity="0"
     inkscape:pagecheckerboard="1"
     inkscape:deskcolor="#505050"
     inkscape:document-units="mm"
     inkscape:zoom="1.2003863"
     inkscape:cx="975.51932"
     inkscape:cy="-268.66352"
     inkscape:window-width="1366"
     inkscape:window-height="715"
     inkscape:window-x="-8"
     inkscape:window-y="-8"
     inkscape:window-maximized="1"
     inkscape:current-layer="layer1"
     showguides="false"
     inkscape:lockguides="false"><sodipodi:guide
       position="-132.39843,124.54902"
       orientation="1,0"
       id="guide36"
       inkscape:locked="false" /><sodipodi:guide
       position="-150.1747,123.46229"
       orientation="1,0"
       id="guide39"
       inkscape:locked="false" /><sodipodi:guide
       position="-239.31268,98.795585"
       orientation="1,0"
       id="guide51"
       inkscape:locked="false" /><sodipodi:guide
       position="-129.69211,45.748025"
       orientation="1,0"
       id="guide53"
       inkscape:locked="false" /></sodipodi:namedview><defs
     id="defs1"><filter
       inkscape:collect="always"
       style="color-interpolation-filters:sRGB"
       id="filter111"
       x="-0.0685497"
       y="-0.061766586"
       width="1.1370994"
       height="1.1235332"><feGaussianBlur
         inkscape:collect="always"
         stdDeviation="1.3588061"
         id="feGaussianBlur111" /></filter></defs><g
     inkscape:label="Capa 1"
     inkscape:groupmode="layer"
     id="layer1"
     transform="translate(-222.18613,112.73958)"><g
       id="g113"
       inkscape:export-filename="..\ICONOS\favicom.png"
       inkscape:export-xdpi="156.20337"
       inkscape:export-ydpi="156.20337"><path
         id="path111-8"
         style="fill:#ff393e;fill-opacity:1;stroke-width:0.231737"
         d="m 303.49052,-72.087508 a 40.652197,40.652195 0 0 1 -40.6522,40.652196 40.652197,40.652195 0 0 1 -40.65219,-40.652196 40.652197,40.652195 0 0 1 40.65219,-40.652072 40.652197,40.652195 0 0 1 40.6522,40.652072 z" /><path
         id="path111"
         style="fill:#ffffff;stroke-width:0.211811"
         d="m 299.99512,-72.087441 a 37.156803,37.156801 0 0 1 -37.1568,37.156801 37.156803,37.156801 0 0 1 -37.1568,-37.156801 37.156803,37.156801 0 0 1 37.1568,-37.156809 37.156803,37.156801 0 0 1 37.1568,37.156809 z" /><path
         style="fill:#000000;fill-opacity:1;filter:url(#filter111)"
         d="m 253.05202,-41.455499 c 0.63091,-0.147522 1.13873,-0.317706 1.1285,-0.378186 -0.0102,-0.06048 -0.0987,-0.499069 -0.19672,-0.974641 -0.49752,-2.41524 -0.27458,-5.340027 0.72652,-9.531334 0.61027,-2.555031 1.93567,-6.645834 3.09017,-9.537732 0.19586,-0.490591 0.3561,-0.916945 0.3561,-0.947454 0,-0.03051 -2.48867,-0.04207 -5.53039,-0.02569 l -5.53039,0.02978 -1.36357,2.867735 c -1.59263,3.34948 -2.49105,5.547226 -3.21212,7.857592 -1.18365,3.792525 -1.42358,5.271682 -1.06988,6.59579 0.62696,2.347086 2.73077,3.819198 6.21044,4.345686 0.18927,0.02864 1.22166,0.03286 2.29419,0.0094 1.52802,-0.03346 2.19832,-0.100745 3.09715,-0.310917 z m 6.94517,-25.505698 c 0.56493,-1.173163 1.02714,-2.149943 1.02714,-2.170622 0,-0.02068 0.26281,-0.59649 0.58403,-1.27958 0.32121,-0.68309 0.84353,-1.809793 1.16071,-2.503785 0.31718,-0.693992 1.13837,-2.418447 1.82487,-3.832124 0.6865,-1.413676 1.24818,-2.639633 1.24818,-2.724348 0,-0.218989 -11.03728,-0.22946 -11.21551,-0.01064 -0.1509,0.185263 -2.30306,4.503331 -2.72997,5.477373 -0.17973,0.410086 -0.38044,0.783535 -0.44602,0.829887 -0.0656,0.04635 -0.0827,0.08507 -0.038,0.08603 0.0447,9.66e-4 -0.0778,0.350186 -0.27206,0.776044 -1.73855,3.81032 -3.1931,7.167327 -3.1931,7.369476 0,0.07568 1.89437,0.115312 5.5113,0.115312 h 5.5113 z m 8.42137,-17.587921 c 1.36629,-2.73817 1.63926,-3.210656 1.88164,-3.25699 0.31453,-0.06013 2.3036,0.05529 5.51902,0.320247 2.40503,0.198177 6.09046,0.226239 7.28666,0.05548 3.57075,-0.509722 5.33951,-1.92783 5.69026,-4.562179 0.0698,-0.524311 0.0977,-0.982505 0.062,-1.018209 -0.0357,-0.0357 -3.69325,-0.05604 -8.12787,-0.04519 -4.7198,0.01155 -8.84773,-0.03124 -9.95566,-0.103193 -1.76377,-0.114546 -6.66907,-0.619951 -7.3626,-0.758587 -0.31072,-0.06211 -0.68945,0.192356 -0.80558,0.541267 -0.0592,0.17781 -2.06626,0.199544 -9.43971,0.102221 -4.46313,-0.05891 -5.3799,0.01933 -6.90276,0.589106 -1.59042,0.595054 -3.15384,2.815028 -3.63998,5.168591 -0.22814,1.104465 -0.22928,1.582389 -0.006,2.446751 0.34466,1.333493 1.32809,2.372866 2.72515,2.880162 0.50389,0.182974 2.17079,0.511986 2.24053,0.442239 0.0222,-0.02215 -0.0676,-0.466991 -0.19951,-0.988533 -0.42263,-1.671244 -0.25273,-2.760823 0.57756,-3.704089 1.08113,-1.228222 3.21354,-1.790673 6.77762,-1.787681 1.32766,0.0011 4.10562,0.190243 4.20142,0.286039 0.0241,0.0241 -0.71222,1.517913 -1.63628,3.319581 l -1.68009,3.27576 h 5.59795 5.59796 z"
         id="path110-4"
         sodipodi:nodetypes="sscsssscssssssssssssssssscsscscsssssssssssscsscsssscccc" /><path
         style="fill:#ff393e;fill-opacity:1"
         d="m 251.86164,-43.898036 c 0.63091,-0.147522 1.13873,-0.317706 1.1285,-0.378186 -0.0102,-0.06048 -0.0987,-0.499069 -0.19672,-0.974641 -0.49752,-2.41524 -0.27458,-5.340027 0.72652,-9.531334 0.61027,-2.555031 1.93567,-6.645834 3.09017,-9.537732 0.19586,-0.490591 0.3561,-0.916945 0.3561,-0.947454 0,-0.03051 -2.48867,-0.04207 -5.53039,-0.02569 l -5.53039,0.02978 -1.36357,2.867735 c -1.59263,3.34948 -2.49105,5.547226 -3.21212,7.857592 -1.18365,3.792525 -1.42358,5.271682 -1.06988,6.59579 0.62696,2.347086 2.73077,3.819198 6.21044,4.345686 0.18927,0.02864 1.22166,0.03286 2.29419,0.0094 1.52802,-0.03346 2.19832,-0.100745 3.09715,-0.310917 z m 6.94517,-25.505698 c 0.56493,-1.173163 1.02714,-2.149943 1.02714,-2.170622 0,-0.02068 0.26281,-0.59649 0.58403,-1.27958 0.32121,-0.68309 0.84353,-1.809793 1.16071,-2.503785 0.31718,-0.693992 1.13837,-2.418447 1.82487,-3.832124 0.6865,-1.413676 1.24818,-2.639633 1.24818,-2.724348 0,-0.218989 -11.03728,-0.22946 -11.21551,-0.01064 -0.1509,0.185263 -2.30306,4.503331 -2.72997,5.477373 -0.17973,0.410086 -0.38044,0.783535 -0.44602,0.829887 -0.0656,0.04635 -0.0827,0.08507 -0.038,0.08603 0.0447,9.66e-4 -0.0778,0.350186 -0.27206,0.776044 -1.73855,3.81032 -3.1931,7.167327 -3.1931,7.369476 0,0.07568 1.89437,0.115312 5.5113,0.115312 h 5.5113 z m 8.42137,-17.587921 c 1.36629,-2.73817 1.63926,-3.210656 1.88164,-3.25699 0.31453,-0.06013 2.3036,0.05529 5.51902,0.320247 2.40503,0.198177 6.09046,0.226239 7.28666,0.05548 3.57075,-0.509722 5.33951,-1.92783 5.69026,-4.562179 0.0698,-0.524311 0.0977,-0.982505 0.062,-1.018209 -0.0357,-0.0357 -3.69325,-0.05604 -8.12787,-0.04519 -4.7198,0.01155 -8.84773,-0.03124 -9.95566,-0.103193 -1.76377,-0.114546 -6.66907,-0.619951 -7.3626,-0.758587 -0.31072,-0.06211 -0.68945,0.192356 -0.80558,0.541267 -0.0592,0.17781 -2.06626,0.199544 -9.43971,0.102221 -4.46313,-0.05891 -5.3799,0.01933 -6.90276,0.589106 -1.59042,0.595054 -3.15384,2.815028 -3.63998,5.168591 -0.22814,1.104465 -0.22928,1.582389 -0.006,2.446751 0.34466,1.333493 1.32809,2.372866 2.72515,2.880162 0.50389,0.182974 2.17079,0.511986 2.24053,0.442239 0.0222,-0.02215 -0.0676,-0.466991 -0.19951,-0.988533 -0.42263,-1.671244 -0.25273,-2.760823 0.57756,-3.704089 1.08113,-1.228222 3.21354,-1.790673 6.77762,-1.787681 1.32766,0.0011 4.10562,0.190243 4.20142,0.286039 0.0241,0.0241 -0.71222,1.517913 -1.63628,3.319581 l -1.68009,3.27576 h 5.59795 5.59796 z"
         id="path110"
         sodipodi:nodetypes="sscsssscssssssssssssssssscsscscsssssssssssscsscsssscccc" /></g></g></svg>
